<svg xmlns="http://www.w3.org/2000/svg" viewBox="0 0 757.82 757.7"><defs><style>.cls-1{fill:#55a1ff;}.cls-2{font-size:50px;}.cls-2,.cls-3{fill:#fff;font-family:OpenSans-Extrabold, Open Sans;font-weight:800;}.cls-3{font-size:215px;}</style></defs><title>Ebene 1</title><g id="Ebene_2" data-name="Ebene 2"><g id="Ebene_1-2" data-name="Ebene 1"><polygon class="cls-1" points="731.78 731.71 732.22 737.5 731.07 749.14 729.93 745.42 728.79 740.38 727.64 710.42 726.5 744.46 725.36 729.4 724.21 740.41 723.07 726.8 721.93 737.14 720.78 726.96 719.64 731.59 718.5 746.1 717.35 716.52 716.21 715.58 715.07 752.47 713.93 753.54 712.78 713.21 711.64 750.09 710.5 710.47 709.36 723.62 708.22 747.49 707.08 732.04 705.93 743.8 704.79 746.97 703.65 727.58 702.51 750.37 701.37 737.66 700.23 721.47 699.09 746.56 697.95 720.72 696.81 729.97 695.67 748.79 694.53 732.01 693.39 721.69 692.25 731.77 691.11 755.31 689.97 730.13 688.83 755.42 687.69 717.39 686.55 723.41 685.41 729.34 684.27 742.45 683.13 730.63 681.99 738.34 680.86 717.16 679.72 752.63 678.58 734.98 677.44 717.39 676.3 757.53 675.16 713.86 674.02 742.2 672.88 741.83 671.75 753.02 670.61 727.39 669.47 749.29 668.33 731.06 667.19 757.42 666.05 741.52 664.91 724.07 663.78 722.74 662.64 719.05 661.5 712.41 660.36 757.44 659.22 743.14 658.09 716.15 656.95 738.94 655.81 740.63 654.67 747.47 653.53 711.84 652.4 732.13 651.26 714.46 650.12 741.61 648.98 743.08 647.85 723.26 646.71 709.82 645.57 731.74 644.43 717.88 643.29 734.07 642.16 736.49 641.02 711.6 639.88 735.4 638.75 725.16 637.61 719.54 636.47 725.6 635.33 711.09 634.19 722.2 633.06 746.38 631.92 727.56 630.78 711.44 629.64 753.77 628.51 737.64 627.37 714.55 626.23 731.82 625.09 749.54 623.96 738.08 622.82 757.32 621.68 733.47 620.54 718.77 619.4 744.61 618.27 720.8 617.13 751.57 615.99 720.71 614.85 728.61 613.72 717.46 612.58 714.19 611.44 750.7 610.3 749.81 609.16 714.64 608.02 715.21 606.89 739.85 605.75 740.6 604.61 730.82 603.47 743.88 602.33 743.15 601.19 740.37 600.05 727.97 598.92 712.03 597.78 729.41 596.64 717.5 595.5 752.95 594.36 713.09 593.22 734.39 592.08 709.73 590.94 728.89 589.8 736.2 588.66 741.28 587.53 714.47 586.39 743.86 585.25 750.08 584.11 755.89 582.97 716.78 581.83 747.49 580.69 722.92 579.55 734.85 578.41 727.75 577.27 747.87 576.13 757.7 574.99 736.02 573.84 730.62 572.7 713.67 571.56 713.32 570.42 753.42 569.28 750.82 568.14 734.46 567 716.09 565.86 752.98 564.71 750.95 563.57 742.27 562.43 755.83 561.29 714.48 560.14 714.03 559 739.45 557.86 721.92 556.72 754.7 555.57 714.08 554.43 738.02 553.29 740.19 552.14 745.35 551 749.06 549.86 718.09 548.71 715.18 547.57 725.93 546.42 723.63 545.28 741.97 544.13 752.22 542.99 740.78 541.85 748.69 540.7 747.44 539.56 726.73 538.41 714.57 537.27 723.74 536.13 744.73 534.98 724.04 533.84 710.75 532.69 741.54 531.55 744.76 530.41 715.38 529.26 716.87 528.12 741.97 526.98 751.06 525.84 752.06 524.69 742.4 523.55 709.23 522.41 731.13 521.27 729.68 520.12 716.01 518.98 721.86 517.84 752.48 516.7 710.44 515.56 723.02 514.41 728.2 513.27 709.12 512.13 757.22 510.99 726.67 509.85 729.04 508.71 754.98 507.57 728.39 506.43 755.26 505.29 750.13 504.14 742.61 503 751.62 501.86 747.71 500.72 747.01 499.58 714.97 498.44 717.86 497.3 745.39 496.16 756.11 495.02 748.69 493.88 739.23 492.74 721.07 491.6 748.52 490.46 726.23 489.31 716.01 488.18 732.7 487.04 745.27 485.89 736.79 484.75 711.25 483.61 741.75 482.47 748.63 481.33 723.07 480.19 719.29 479.05 735.06 477.91 754.18 476.77 710.84 475.63 742.71 474.49 734.84 473.35 741.29 472.21 728.54 471.07 744.06 469.93 747.58 468.79 710.7 467.65 724.59 466.51 749.83 465.37 726.82 464.22 715.69 463.08 716.87 461.94 721.92 460.8 747.36 459.66 710.72 458.52 747.05 457.38 719.24 456.24 730.85 455.1 752.09 453.95 726.95 452.81 719.64 451.67 753.43 450.53 737.22 449.39 730.03 448.24 722.68 447.1 736.28 445.96 756.35 444.82 736.91 443.68 748.71 442.53 745.79 441.39 753.16 440.25 730.91 439.1 717.37 437.96 753.24 436.82 715.08 435.67 740.96 434.53 752.48 433.38 737.56 432.24 726.95 431.1 747.38 429.95 719.97 428.81 716.31 427.66 736.47 426.52 734.19 425.37 722.02 424.23 755.25 423.08 737.53 421.94 754.39 420.79 717.21 419.64 737.5 418.5 729.57 417.36 752.64 416.21 744.52 415.07 727.18 413.92 718.05 412.78 747.24 411.63 754.18 410.49 728.05 409.35 751.4 408.2 723.38 407.06 739.3 405.91 721.05 404.77 720.23 403.63 741.79 402.48 710.08 401.34 712.66 400.2 747.53 399.06 712.79 397.91 714.55 396.77 746.56 395.63 719.29 394.49 731.73 393.34 741.84 392.2 757.67 391.06 715.42 389.92 739.93 388.77 711.62 387.63 711.16 386.49 743.56 385.35 750.04 384.2 729.11 383.06 709.36 381.92 751.29 380.78 743.03 379.63 730.89 378.49 725.08 377.35 740.67 376.21 740.57 375.07 730.09 373.92 722.53 372.78 735.56 371.64 748.15 370.5 737.37 369.35 726.23 368.21 719.38 367.07 729.7 365.93 732.87 364.78 716.98 363.64 735.13 362.5 749.92 361.35 745.89 360.21 748.46 359.07 726.07 357.92 710.2 356.78 731.36 355.64 722.33 354.49 750.04 353.35 745.4 352.2 740.84 351.06 754.77 349.92 753.76 348.77 727.14 347.63 734.01 346.48 738.81 345.34 735.93 344.19 725.11 343.04 724.65 341.9 721.77 340.75 730.86 339.61 724.95 338.46 753.95 337.31 751.22 336.17 755.03 335.02 719.15 333.88 747.86 332.73 730.23 331.59 736.52 330.44 743.66 329.3 731.89 328.15 749.09 327.01 716.79 325.87 751.47 324.72 724.67 323.58 718.67 322.43 756.54 321.29 729.12 320.14 734.64 319 752.86 317.86 737.2 316.71 751.19 315.57 720.42 314.43 733.21 313.28 714.96 312.14 741.59 311 743.18 309.85 748.22 308.71 744.64 307.56 715.16 306.42 730.38 305.28 742.44 304.13 732.33 302.99 729.13 301.85 716.4 300.7 724.63 299.56 753.4 298.42 729.63 297.27 734.35 296.13 752.49 294.98 728.43 293.84 748.45 292.69 734.49 291.55 719.86 290.4 726.85 289.26 752.87 288.11 732.83 286.97 732.15 285.82 741.84 284.68 750.62 283.53 731.92 282.38 723.75 281.24 716.21 280.09 747.16 278.94 715.82 277.8 740.21 276.65 740.95 275.51 716.05 274.36 751.03 273.22 735.04 272.07 735.92 270.93 718.76 269.78 711.27 268.64 715.79 267.49 710.67 266.35 746.6 265.2 736.29 264.06 726.34 262.91 718.66 261.77 715.07 260.62 717.1 259.48 715.97 258.33 720.83 257.19 722.65 256.05 751.17 254.9 713.27 253.76 746.03 252.61 729.81 251.47 712.87 250.32 718.38 249.18 731.05 248.03 750.57 246.89 735.61 245.74 731.61 244.6 721.77 243.45 712.46 242.31 751.11 241.16 723.99 240.01 720.35 238.87 734.02 237.72 735.13 236.57 722.71 235.43 712.71 234.28 730.75 233.13 736.21 231.99 719.08 230.84 749.42 229.69 735.63 228.55 719.6 227.4 718.94 226.26 732.24 225.11 747.29 223.97 724.03 222.82 741.2 221.68 710.33 220.53 756.63 219.39 726.57 218.24 741.28 217.1 750.47 215.95 745.3 214.81 713.01 213.66 755.36 212.52 744.12 211.37 718.64 210.22 741.26 209.08 752.05 207.93 735 206.79 713.53 205.64 711.01 204.49 732.34 203.34 708.76 202.2 745.73 201.05 754.22 199.91 711.74 198.76 722.36 197.62 735.25 196.47 734.72 195.33 733.08 194.18 755.98 193.04 717.31 191.9 751.47 190.75 740.06 189.61 723.93 188.47 740.33 187.33 741.71 186.18 754.19 185.04 713.45 183.9 709.5 182.76 735.49 181.62 743.9 180.47 711.69 179.33 753.59 178.19 740.11 177.05 726.63 175.91 722.92 174.77 756.34 173.63 727.6 172.48 737.69 171.34 732.41 170.2 757.08 169.06 732.94 167.91 716.54 166.77 732.65 165.63 715.2 164.48 752.15 163.34 728.65 162.19 709.59 161.04 754.66 159.9 741.97 158.75 740.09 157.6 755.67 156.46 726.49 155.31 753.19 154.16 755.34 153.01 716.97 151.87 744.57 150.72 715.33 149.57 731.5 148.43 717.63 147.28 748.22 146.14 737.89 144.99 736.17 143.85 743.66 142.71 747.23 141.56 710.66 140.42 713.27 139.27 727.25 138.13 733.84 136.98 754.51 135.84 716.2 134.69 734.92 133.55 741.09 132.4 716.92 131.26 727.44 130.11 740.39 128.96 718.24 127.81 753.99 126.67 727.98 125.52 712.57 124.37 751.67 123.22 751.82 122.07 723.95 120.92 744.74 119.78 713.78 118.63 727.21 117.49 756.47 116.34 729.98 115.19 750.62 114.05 744.8 112.9 749.25 111.75 730.19 110.61 710.43 109.46 725.89 108.31 710.14 107.17 710.72 106.02 757.05 104.87 744.86 103.72 748.9 102.57 738.78 101.42 731.2 100.27 717.99 99.13 741.31 97.98 709.86 96.83 748.85 95.68 717.69 94.54 719.38 93.39 749.26 92.24 746.47 91.09 718.91 89.94 739.33 88.79 715.84 87.64 727.25 86.49 716.73 85.34 719.04 84.2 739.31 83.05 741.61 81.9 757.16 80.75 712.15 79.6 727.98 78.45 738.4 77.3 741.64 76.15 738.05 75 729.37 73.85 741.67 72.7 723.77 71.56 732.94 70.41 717.63 69.26 754.15 68.11 725.49 66.96 721.61 65.82 710.09 64.67 744.22 63.52 742.27 62.38 745.73 61.23 717.98 60.08 754.9 58.93 748.6 57.78 746.27 56.63 747.47 55.48 756.22 54.34 736.28 53.19 720.29 52.04 748.38 50.89 720.65 49.73 743.9 48.58 712.25 47.43 726.43 46.28 739.15 45.13 713.77 43.98 715.16 42.83 720.42 41.68 726.11 40.52 723.05 39.37 728.06 38.23 713.31 37.08 756.18 35.92 738.95 34.77 750.69 33.62 717.57 32.47 747.92 31.31 739.07 30.16 717.11 29 711.7 27.85 733.47 26.69 738.66 25.53 737.22 35.51 721.97 34.56 732.12 24.98 730.98 41.12 729.83 14.53 728.69 39.98 727.55 26.04 726.4 5.09 725.26 21.09 724.12 46.23 722.97 5.53 721.83 16.61 720.69 44.58 719.54 10.25 718.4 12.63 717.26 20.36 716.12 45.49 714.97 36.41 713.83 43.77 712.69 6.65 711.55 8.55 710.4 26.66 709.26 44.63 708.12 22.1 706.98 0.54 705.84 20.58 704.7 24.92 703.56 33.06 702.42 21.62 701.28 35.32 700.13 8.96 699 8.05 697.85 46.96 696.71 4.12 695.57 10.09 694.43 21.54 693.29 42.47 692.15 44.91 691.01 46.11 689.87 9.9 688.74 8.53 687.6 40.3 686.46 40.82 685.32 11.33 684.18 31.58 683.04 34.57 681.9 20.73 680.76 30.35 679.62 5.22 678.48 37.13 677.34 11.04 676.2 15.62 675.07 30.01 673.93 2.71 672.79 39.93 671.65 22.95 670.51 26.45 669.37 48.16 668.23 47.43 667.1 22.89 665.96 11.31 664.82 9.72 663.68 9.67 662.54 12.99 661.4 12.86 660.27 18.04 659.13 26.04 657.99 41.16 656.85 46.05 655.72 18.5 654.58 42.74 653.44 16.05 652.3 5.38 651.16 12.1 650.03 38.48 648.89 38.04 647.75 43.47 646.61 22.9 645.48 2.91 644.34 48.59 643.2 18.77 642.06 47.64 640.92 43.24 639.79 21.7 638.65 1.82 637.51 23.03 636.37 47.71 635.24 34.28 634.1 31.41 632.96 17.17 631.82 25.61 630.69 17.77 629.55 31.8 628.41 43.47 627.27 13.3 626.13 47.38 625 42.6 623.86 46.64 622.72 28.84 621.58 39.96 620.45 6.45 619.31 47.27 618.17 42.97 617.03 10.8 615.89 1.06 614.76 14.28 613.62 7.72 612.48 5.69 611.34 13.56 610.21 39.93 609.07 8.79 607.93 25.2 606.79 46.07 605.65 43.63 604.51 43.55 603.38 37.63 602.24 42.23 601.1 20.22 599.96 29.91 598.82 5.81 597.68 31.63 596.54 10.15 595.4 38.38 594.26 23.89 593.13 30.93 591.99 22.82 590.85 28.87 589.71 48.32 588.57 0.38 587.43 21.93 586.29 15.85 585.15 5.37 584.01 31.98 582.87 7.9 581.73 41.65 580.59 4.37 579.45 38.59 578.31 12.16 577.17 48.15 576.03 17.77 574.89 2.29 573.75 38.56 572.61 6.83 571.47 31.29 570.33 2.62 569.18 11.49 568.04 5.49 566.9 25.58 565.76 4.53 564.62 11.12 563.48 14.32 562.33 8.28 561.19 47.92 560.05 22.27 558.91 9.98 557.76 45.95 556.62 34.7 555.48 16.32 554.34 33.26 553.19 24.88 552.05 0.06 550.9 33.71 549.76 25.77 548.62 21.33 547.47 14.99 546.33 8.37 545.18 1.5 544.04 29.98 542.89 18.53 541.75 30.82 540.61 6.63 539.46 29.15 538.32 1.17 537.17 6.91 536.03 31.32 534.88 13.91 533.74 4.58 532.6 46.35 531.46 12.94 530.31 44.22 529.17 16.16 528.03 47.78 526.88 45.58 525.74 37.37 524.6 7.65 523.46 10.46 522.31 3.98 521.17 38.08 520.03 0.14 518.89 29.68 517.74 20.19 516.6 9.13 515.46 13.05 514.32 35.42 513.18 40.64 512.04 23.23 510.89 23.94 509.75 44.84 508.61 0.08 507.47 45.77 506.33 42.13 505.19 8.02 504.05 16.45 502.91 42.24 501.77 30.81 500.63 17.33 499.49 35.4 498.34 41.11 497.2 25.67 496.06 9.03 494.92 44.14 493.78 3.65 492.64 37.64 491.5 21.45 490.36 38.15 489.22 13.71 488.08 38.84 486.94 40.37 485.8 27.33 484.66 1.88 483.52 11.46 482.38 5.85 481.24 0.21 480.1 7.08 478.96 15.36 477.82 40.28 476.68 34.84 475.54 42.92 474.39 9.39 473.25 1.66 472.11 33.79 470.97 32.88 469.83 19.12 468.69 39.28 467.55 7.19 466.41 8.86 465.27 42.93 464.13 30.37 462.99 38.05 461.85 7.87 460.71 44.18 459.56 16.09 458.42 20.6 457.28 8.48 456.14 9.55 455 5.63 453.86 21.36 452.72 27.93 451.57 29.07 450.43 41.34 449.29 30.27 448.15 35.48 447.01 34.88 445.86 21.01 444.72 0.76 443.58 47.73 442.44 36.6 441.29 23.18 440.15 24.11 439.01 12.71 437.86 0 436.72 43.46 435.58 17.86 434.43 44.42 433.29 10.92 432.14 34.81 431 47.81 429.86 26.36 428.71 18.3 427.57 41.81 426.42 26.11 425.28 28.19 424.13 43.01 422.99 47.82 421.84 3.25 420.69 14.76 419.55 48.61 418.4 11.05 417.26 41.39 416.12 46.63 414.97 17.5 413.83 2.46 412.68 4.43 411.54 39.39 410.39 16.75 409.25 39.54 408.11 17.07 406.96 36.01 405.82 12.97 404.68 18.77 403.53 16.52 402.39 10.43 401.25 4.51 400.1 27.03 398.96 31.4 397.82 9.46 396.67 34.51 395.53 13.53 394.39 3.56 393.25 43.51 392.1 15.84 390.96 33.64 389.82 3.24 388.68 42.99 387.54 9.67 386.39 46.19 385.25 45.36 384.11 26.04 382.97 6.58 381.82 34.61 380.68 14.22 379.54 10.34 378.4 47.93 377.25 21.53 376.11 31.77 374.97 10.63 373.83 30.52 372.69 12.03 371.54 12.22 370.4 46.86 369.26 32.27 368.12 23.4 366.97 12.5 365.83 14.31 364.69 11.75 363.54 40.42 362.4 23.32 361.26 27.05 360.12 13.42 358.97 5.12 357.83 26.12 356.68 7.55 355.54 25.53 354.4 23.07 353.25 38.97 352.11 16.16 350.96 34.27 349.82 12.9 348.68 45.48 347.53 44.29 346.38 9.38 345.24 10.45 344.09 19.72 342.95 29.61 341.8 21.7 340.66 11.05 339.51 39.59 338.36 42.73 337.22 31.72 336.07 22.33 334.93 15.17 333.78 31.16 332.64 39.89 331.49 44.14 330.35 4.81 329.2 1.1 328.06 39.67 326.91 10.87 325.77 8.39 324.63 23.18 323.48 22.86 322.34 0.95 321.19 14.42 320.05 11.23 318.9 17.44 317.76 13.55 316.62 23.65 315.47 32.62 314.33 15.46 313.19 9.41 312.04 41.56 310.9 20.98 309.76 15.98 308.61 5.94 307.47 7.58 306.33 41.92 305.18 40.79 304.04 41.28 302.89 45.53 301.75 31.62 300.61 4.96 299.46 42.47 298.32 22.7 297.18 11.77 296.03 34.81 294.89 0.76 293.74 27.55 292.6 44.02 291.45 37.28 290.31 47.88 289.16 18.25 288.02 44.84 286.87 44.55 285.73 3.11 284.58 6.8 283.44 47.75 282.29 39.77 281.14 43.73 280 11.49 278.85 4.17 277.7 3.55 276.56 9.85 275.41 14.87 274.27 4.06 273.12 14.44 271.98 25.68 270.83 42.36 269.69 7.72 268.54 15.73 267.39 46.14 266.25 10.57 265.11 18.72 263.96 12.99 262.82 30.71 261.67 48.44 260.53 34.55 259.38 20.6 258.24 19.8 257.09 9.17 255.95 18.69 254.81 31.7 253.66 2.1 252.52 3.34 251.37 14.97 250.23 15.86 249.08 24.42 247.94 33.92 246.79 10.74 245.65 22.76 244.5 40.46 243.36 24.54 242.21 12.67 241.06 4.41 239.92 48.11 238.77 37.06 237.62 39.94 236.48 21.94 235.33 11.44 234.18 9.41 233.04 8.48 231.89 8.7 230.75 19.32 229.6 35.07 228.45 43.95 227.31 0.6 226.16 29.53 225.02 24.83 223.87 21.26 222.73 5.44 221.58 42.48 220.44 17.46 219.29 44.29 218.15 30.15 217 4.47 215.86 28.98 214.71 26.51 213.57 25.72 212.42 39.4 211.28 20.78 210.13 37.35 208.98 23.79 207.84 14.85 206.69 3.67 205.54 15.87 204.4 28.49 203.25 21.74 202.1 25.06 200.96 26.47 199.81 35.74 198.66 38.27 197.52 6.98 196.38 1.57 195.23 37.42 194.09 14.21 192.94 15.69 191.8 47.66 190.66 39.73 189.51 18.62 188.37 48.22 187.23 14.69 186.09 2.09 184.95 20.71 183.8 14.57 182.66 42.4 181.52 19.93 180.38 25.12 179.24 30.31 178.1 48.32 176.96 20.68 175.81 33.3 174.67 31.72 173.53 18.18 172.39 31.31 171.25 13.2 170.1 4.65 168.96 43.53 167.82 41.87 166.67 35.07 165.53 35.2 164.38 7 163.24 33.18 162.09 20.38 160.95 3.13 159.8 16.37 158.66 26.22 157.51 45.93 156.36 37.45 155.21 17.68 154.06 35.34 152.92 12.92 151.77 35.73 150.62 31.58 149.48 27.92 148.33 15.19 147.19 3.97 146.04 31.11 144.9 17.46 143.75 20.38 142.61 8.33 141.47 23.25 140.32 0.87 139.18 2.08 138.03 25.45 136.89 38.3 135.74 13.86 134.6 19.04 133.45 2.03 132.31 1.36 131.16 15.19 130.01 7.1 128.87 18.13 127.72 23.34 126.57 20.72 125.42 5.24 124.27 31.8 123.12 7.21 121.98 2.03 120.83 42.29 119.68 30.71 118.54 38.33 117.39 19.56 116.24 13.56 115.1 19.39 113.95 13.61 112.81 6.86 111.66 48.3 110.51 30.5 109.37 26.97 108.22 19.22 107.07 30.83 105.92 29.87 104.77 15.13 103.62 20.01 102.47 1.45 101.33 1.98 100.18 34.23 99.03 18.11 97.88 2.11 96.73 36.26 95.59 14.08 94.44 21.71 93.29 14.6 92.14 14.84 91 17.78 89.84 33.91 88.69 26.53 87.55 45.71 86.4 0.4 85.25 45.4 84.1 39.84 82.95 16.18 81.8 45.37 80.66 4.57 79.5 7.88 78.36 48.05 77.2 23.48 76.06 14.47 74.91 6.11 73.76 33.3 72.61 44.99 71.46 1.79 70.31 34.24 69.16 31.62 68.01 12.76 66.87 38.43 65.72 48.82 64.57 2.72 63.43 38.99 62.28 21.77 61.14 16.39 59.99 17.57 58.84 33.32 57.69 41.27 56.54 47.03 55.39 9.68 54.24 29.06 53.09 39.36 51.94 6.14 50.79 14.48 49.64 45.22 48.49 45.41 47.34 36.84 46.19 6.92 45.04 22.03 43.88 31.66 42.73 18.47 41.58 40.38 40.43 48.82 39.28 32.9 38.13 30.48 36.98 41.91 35.83 0.63 34.68 19.88 33.52 43.63 32.37 16.09 31.22 27.89 30.06 21.03 28.91 25.28 27.75 12.38 26.59 35.05 25.43 29.58 29.41 25.51 3.96 26.66 20 27.8 33.62 28.94 9.2 30.09 6.43 31.23 28.24 32.38 45.3 33.52 32.73 34.66 48.09 35.8 22.47 36.95 17.81 38.09 42.69 39.23 42.2 40.38 8.23 41.52 47.95 42.66 24.09 43.8 5.01 44.95 29.81 46.09 2.13 47.23 48.77 48.37 28.84 49.51 29.08 50.66 3.78 51.8 10.14 52.94 9.12 54.08 2.56 55.22 46.16 56.36 35.23 57.5 18.6 58.64 7.92 59.78 3.25 60.92 34.68 62.06 40.41 63.2 36.7 64.34 12.76 65.48 12.73 66.62 1.94 67.76 39.73 68.9 4.36 70.04 39.02 71.18 46.89 72.32 24.14 73.46 13.57 74.6 33.73 75.74 26.79 76.88 18.03 78.01 5.46 79.15 32.55 80.29 11.73 81.43 17.92 82.57 15.21 83.71 4.59 84.85 17.62 85.99 9.19 87.12 16.03 88.26 36.65 89.4 14.34 90.54 27.45 91.68 27.44 92.82 6.3 93.95 29.54 95.09 7.96 96.23 21.22 97.37 46.96 98.51 40.26 99.64 28.35 100.78 40.23 101.92 45.41 103.06 6.07 104.2 5.42 105.33 38.34 106.47 14.04 107.61 30.01 108.75 39.55 109.89 3.61 111.02 19.33 112.16 20.95 113.3 26.32 114.44 20.15 115.57 38.5 116.71 19.75 117.85 22.83 118.99 46.51 120.12 43.21 121.26 23.73 122.4 37.72 123.54 46.19 124.67 45.28 125.81 30.86 126.95 45.7 128.09 3.32 129.22 10.87 130.36 20.27 131.5 23.16 132.64 17.72 133.78 15.54 134.91 2.35 136.05 21.6 137.19 12.53 138.33 7.41 139.46 2.13 140.6 26.06 141.74 32.82 142.88 40.84 144.02 11.2 145.15 7.66 146.29 31.06 147.43 4.99 148.57 16.81 149.71 15.5 150.84 20.12 151.98 3.58 153.12 45.51 154.26 30.61 155.4 28.52 156.54 18.13 157.68 35.84 158.81 15.52 159.95 3.59 161.09 11.06 162.23 16.55 163.37 29.2 164.51 28.43 165.65 32.22 166.79 12.8 167.93 7.6 169.07 18.11 170.21 14.64 171.34 9.75 172.48 10.94 173.62 45.2 174.76 48.59 175.9 33.21 177.04 47.67 178.18 18.91 179.32 35.48 180.47 39.48 181.6 31.31 182.75 15.04 183.89 0.8 185.03 17.25 186.17 9.37 187.31 29.95 188.45 16.58 189.59 42.69 190.73 44.17 191.88 14.75 193.02 32.46 194.16 4.37 195.3 31.85 196.44 41.08 197.59 36.18 198.73 13.51 199.87 15.7 201.01 33.37 202.16 9.21 203.3 39.85 204.44 5.74 205.59 46.21 206.73 0.54 207.87 33.74 209.02 7.7 210.16 31.68 211.31 29.31 212.45 6.05 213.59 8.66 214.74 26.18 215.88 41.19 217.03 3.02 218.17 34.14 219.32 44.64 220.46 21.42 221.61 35.83 222.75 24.03 223.89 23.68 225.04 48.33 226.18 0.15 227.32 34.24 228.47 32.65 229.61 46.91 230.75 37.47 231.9 21.27 233.04 15.94 234.18 6.85 235.32 1.06 236.46 10.8 237.61 20.7 238.75 32.34 239.89 46.85 241.03 5.35 242.17 26.29 243.32 7.66 244.46 31.8 245.6 40.05 246.74 35.42 247.88 10.6 249.02 34.18 250.16 35.8 251.31 33.64 252.45 32.24 253.59 21.28 254.73 5.67 255.87 35.92 257.01 37.14 258.15 47.85 259.29 18.95 260.43 22.86 261.57 0.74 262.71 40.05 263.85 37.43 264.99 34.64 266.13 26.75 267.27 8.97 268.42 8.7 269.56 28.94 270.7 34.45 271.84 42.75 272.98 36.93 274.12 15.98 275.26 0.66 276.4 38.95 277.54 35.58 278.68 28.11 279.82 1.47 280.96 45.66 282.1 6 283.24 44.83 284.38 9.04 285.52 45.78 286.66 3.15 287.8 18.8 288.94 12.02 290.08 3.88 291.23 1.26 292.37 25.89 293.51 22.81 294.65 39.32 295.79 43.91 296.93 47.47 298.07 0.88 299.21 25.66 300.35 9.16 301.49 45.13 302.64 39.9 303.78 48.46 304.92 11.4 306.06 32.32 307.2 14.36 308.34 41.31 309.49 35.35 310.63 18.72 311.77 13.86 312.91 32.04 314.06 19.88 315.2 21.91 316.34 25.55 317.48 5.22 318.63 16.42 319.77 22.27 320.91 45.83 322.06 28.77 323.2 22.17 324.35 6.62 325.49 13.02 326.63 42.7 327.78 44.12 328.92 25.57 330.07 6.89 331.21 6.98 332.36 43.07 333.5 17.95 334.65 8.88 335.8 2.54 336.94 19.75 338.08 13.44 339.23 11.82 340.38 2.2 341.52 39 342.67 25.76 343.81 18.15 344.95 32.71 346.1 13.18 347.24 2.38 348.38 29.17 349.53 3.69 350.67 21.08 351.82 25.38 352.96 5.57 354.1 22.68 355.25 3 356.39 2.1 357.53 48.74 358.68 30.83 359.82 0.62 360.96 20.54 362.1 47.82 363.25 19.8 364.39 27.24 365.53 19.9 366.67 22.45 367.82 7.28 368.96 1.91 370.1 0.24 371.24 13.94 372.38 2.46 373.53 9.29 374.67 9.94 375.81 19.61 376.95 21.23 378.1 44.42 379.24 7.44 380.38 48.42 381.52 39.16 382.67 43.4 383.81 12.43 384.95 8.44 386.09 40.26 387.23 45.35 388.38 5.67 389.52 43.32 390.66 0.38 391.81 12.31 392.95 41.66 394.09 48.14 395.23 12.31 396.38 34.65 397.52 33.47 398.66 11.05 399.81 48.51 400.95 7.54 402.09 16.82 403.24 9.12 404.38 9.4 405.53 45.29 406.67 9.75 407.81 34.4 408.96 43.41 410.11 32.77 411.25 29.91 412.39 46.93 413.54 22.25 414.69 21.95 415.83 23.01 416.98 38.88 418.12 20.05 419.27 19.78 420.42 19.27 421.56 16.14 422.71 42.73 423.85 42.17 425 26.42 426.14 24.64 427.29 22.92 428.43 9.72 429.58 25.18 430.72 29.99 431.87 42.31 433.01 16.68 434.15 16.76 435.3 22.5 436.44 32.32 437.59 9.74 438.73 47.24 439.87 9.15 441.02 42.24 442.16 45.35 443.3 11.33 444.45 19.63 445.59 31.57 446.74 14.99 447.88 42.63 449.02 33.03 450.17 30.72 451.31 7.25 452.45 18.57 453.6 1.34 454.74 19.03 455.88 0 457.03 16.29 458.17 23.28 459.31 20.87 460.46 2.4 461.6 2.72 462.75 11.48 463.89 14.11 465.04 26.49 466.18 6.95 467.33 33.87 468.47 4.6 469.62 27.56 470.76 38.29 471.91 35.03 473.05 7.98 474.2 26.43 475.35 18.01 476.49 20.38 477.64 47.38 478.79 13.62 479.93 17.31 481.08 46.17 482.22 6.34 483.37 44.62 484.51 40.32 485.66 19.79 486.81 33.8 487.95 28.31 489.1 36.69 490.24 25.72 491.38 16.93 492.53 9.55 493.67 19.84 494.82 5.5 495.96 44.16 497.11 7.25 498.25 44.16 499.4 45.92 500.54 30.97 501.69 12.66 502.83 15.18 503.97 5.92 505.12 38.75 506.26 42.43 507.41 17.32 508.55 30.57 509.7 47.46 510.84 17.99 511.99 5.97 513.13 45.24 514.28 26.16 515.42 2.97 516.57 38.51 517.72 23.6 518.86 42.41 520.01 31.15 521.16 38.19 522.3 4.64 523.45 29.37 524.6 7.42 525.74 20.41 526.89 35 528.03 29.83 529.18 41.76 530.33 20.24 531.47 41.05 532.62 45.76 533.76 32.23 534.91 13.74 536.05 3.07 537.2 18.74 538.34 33.19 539.49 3.05 540.63 43.92 541.78 0.96 542.92 28.77 544.07 18.67 545.22 20.16 546.36 12.91 547.51 10.69 548.65 12.95 549.8 41.73 550.94 39.63 552.09 9.61 553.24 35.19 554.38 37.62 555.53 4.58 556.68 47.93 557.82 25.42 558.97 38.66 560.12 26.04 561.26 6.27 562.4 9.25 563.55 30.26 564.69 11 565.84 8.8 566.98 30.79 568.12 16.71 569.26 18.59 570.4 45.24 571.55 18 572.69 32.2 573.83 6.9 574.97 22.83 576.11 44.74 577.25 5.16 578.4 3.21 579.54 44.45 580.68 7.57 581.82 43.95 582.96 46.75 584.11 47.66 585.25 14.69 586.39 21.47 587.53 12.55 588.67 22.1 589.82 15.08 590.96 6.99 592.11 37.96 593.25 38.14 594.39 14.14 595.54 30.45 596.69 43.12 597.83 29.88 598.98 41.21 600.13 41.7 601.27 46.97 602.42 35.72 603.57 38.74 604.72 19.91 605.87 15.29 607.01 6.48 608.16 14.9 609.3 17.62 610.45 11.13 611.59 31.19 612.74 41.35 613.88 45.63 615.02 21.19 616.17 41.63 617.31 45.76 618.46 24.16 619.6 32.57 620.75 41.8 621.89 9.96 623.04 0.69 624.18 27.41 625.33 21.32 626.47 33.41 627.62 26.61 628.77 28.82 629.92 10.81 631.06 39.49 632.21 40.27 633.36 12.64 634.51 26.58 635.66 5.71 636.8 30.58 637.95 14.42 639.1 19.36 640.24 5.32 641.39 44.67 642.54 1.18 643.68 15.54 644.83 9.88 645.98 19.75 647.12 33.33 648.27 26.72 649.42 14.99 650.57 31.82 651.71 41.29 652.86 13.84 654.01 46.39 655.16 10.11 656.31 36.22 657.46 20.93 658.61 20.47 659.75 0.18 660.9 30.42 662.05 29.51 663.19 45.84 664.34 24.45 665.49 45.7 666.64 40.84 667.79 12.5 668.94 34.94 670.09 24.39 671.24 35.1 672.39 35.7 673.53 36.28 674.68 21.33 675.83 20.45 676.98 12.73 678.13 40.56 679.28 1.34 680.43 17.32 681.58 6.86 682.73 30.13 683.88 12.61 685.03 43.73 686.17 10.72 687.32 30.88 688.47 11.61 689.62 44.98 690.77 19.12 691.91 31.24 693.06 11.73 694.21 29.68 695.35 41.9 696.5 45.36 697.65 27.48 698.8 12.25 699.95 6.51 701.1 6.57 702.25 45.3 703.4 23.92 704.54 14.27 705.69 34.87 706.84 31.82 708 37.46 709.15 17.54 710.3 29.25 711.45 14.84 712.6 18.54 713.75 19.14 714.9 10.8 716.05 2.53 717.21 47.08 718.36 8.21 719.51 20.34 720.65 21.33 721.81 35.34 722.96 47.59 724.11 16.5 725.27 38.01 726.42 15.22 727.57 21.09 728.73 48.03 729.88 46.4 731.04 31.52 732.2 43.89 736.94 20.64 722.38 25.42 732.15 26.56 742.57 27.7 749.51 28.85 738.06 29.99 738 31.14 755.85 32.28 741.55 33.42 709.5 34.56 749.58 35.71 725.53 36.85 748.57 37.99 731.3 39.14 747.61 40.28 751.96 41.42 745.47 42.57 755.36 43.71 723.22 44.85 742.84 45.99 717.51 47.13 737.61 48.28 737.07 49.42 737.06 50.56 741.62 51.7 716.61 52.84 715.46 53.98 747.75 55.12 756.55 56.26 739.95 57.4 750.86 58.54 738.58 59.69 752.39 60.83 725.55 61.97 738.17 63.1 735.06 64.25 713.24 65.39 712.92 66.53 751.26 67.67 753.59 68.8 749.45 69.94 709.39 71.08 746.02 72.22 745.93 73.36 753.26 74.5 733.22 75.64 749.48 76.78 732.19 77.92 749.59 79.06 748.86 80.2 709.37 81.33 731.71 82.47 736.38 83.61 753.14 84.75 722.42 85.89 713.97 87.03 745.31 88.17 756.7 89.31 717.94 90.44 718.06 91.58 750.5 92.72 723.32 93.86 756.03 95 725.63 96.14 714.89 97.27 750.59 98.41 722.82 99.55 730.05 100.69 744.96 101.82 721.56 102.96 729.22 104.1 733.63 105.24 712.24 106.38 739.87 107.51 750.41 108.65 723.47 109.79 733.72 110.93 744.75 112.06 714.62 113.2 750.12 114.34 742.23 115.48 716.64 116.61 754.74 117.75 718.25 118.89 735.01 120.03 751.91 121.17 723.67 122.3 748.86 123.44 715.7 124.58 750.9 125.72 745.59 126.85 741.97 127.99 741.69 129.13 713.42 130.27 727.6 131.4 734.36 132.54 729.2 133.68 748.68 134.82 751.16 135.96 730.52 137.09 722.18 138.23 715.35 139.37 757.82 140.51 719.05 141.64 738.16 142.78 755.56 143.92 713.33 145.06 728.92 146.2 750.11 147.33 726.84 148.47 743.11 149.61 755.7 150.75 750.81 151.89 727.09 153.03 756.65 154.16 755.22 155.3 723.39 156.44 716.7 157.58 720.31 158.72 730.79 159.86 709.71 161 746.5 162.13 752.8 163.27 719.46 164.41 751.23 165.55 727.13 166.69 732.73 167.83 752.23 168.97 746.95 170.11 709.31 171.25 748.86 172.39 740.97 173.53 738.4 174.67 757.49 175.81 710.09 176.95 709.96 178.09 734.79 179.23 749.39 180.37 740.04 181.51 736.54 182.65 735.49 183.79 752.25 184.93 722.15 186.07 724.92 187.21 749.17 188.35 739.81 189.5 718.16 190.64 749.86 191.78 731.47 192.92 742.09 194.06 723.97 195.21 721.9 196.35 730.66 197.49 731.06 198.63 750.66 199.78 748.08 200.92 722.13 202.06 746.07 203.2 723.73 204.35 743.75 205.49 715.17 206.63 709.26 207.78 747.29 208.92 718.44 210.07 710.97 211.21 728.9 212.35 736.27 213.5 732.5 214.64 752.17 215.79 752.59 216.93 747.42 218.08 722.11 219.22 740.84 220.37 711.49 221.51 718.15 222.65 757.82 223.8 755.56 224.94 752.71 226.08 747.95 227.23 708.99 228.37 711.05 229.51 740.42 230.66 729.44 231.8 712.35 232.94 728.25 234.08 730.45 235.23 708.87 236.37 730.88 237.51 715.33 238.65 716.64 239.79 734.05 240.94 748.46 242.08 723.32 243.22 716.58 244.36 736.46 245.5 719.52 246.64 724.19 247.79 720.35 248.93 724.72 250.07 740.84 251.21 737.7 252.35 736.64 253.49 709.01 254.63 711.97 255.77 739.04 256.91 753.9 258.05 731.64 259.19 735.42 260.34 734.61 261.48 752.97 262.62 717.35 263.76 738.97 264.9 731.88 266.04 735.81 267.18 714.69 268.32 718.31 269.46 745.63 270.6 710.79 271.74 751.84 272.88 719.46 274.02 713.66 275.16 746.08 276.3 731.31 277.44 733.93 278.58 709.24 279.72 737.59 280.86 714.03 282 753.31 283.14 735.23 284.29 738.36 285.43 742.98 286.57 715.17 287.71 732.22 288.85 711.32 289.99 753.04 291.13 734 292.27 722.87 293.41 748.54 294.55 746.31 295.69 711.83 296.83 744.41 297.98 717.05 299.12 750.38 300.26 751.65 301.4 736.58 302.54 717.18 303.68 738.82 304.82 733.02 305.96 723.3 307.11 725.51 308.25 717.57 309.39 717.95 310.53 719.86 311.68 710.32 312.82 715.28 313.96 742.76 315.1 753.22 316.25 718.89 317.39 734.34 318.53 732.42 319.68 721.17 320.82 754.22 321.96 743.73 323.11 710.74 324.25 722.97 325.39 724.68 326.54 721.34 327.68 719.56 328.83 754.04 329.97 725.29 331.12 729 332.26 718.17 333.41 740.39 334.55 757.73 335.7 733.65 336.84 709.42 337.99 736.71 339.13 736.23 340.28 746.09 341.42 726.7 342.57 744.23 343.71 719.29 344.86 745.78 346 732.02 347.15 756.58 348.29 744.18 349.43 717.9 350.58 745.58 351.72 734.88 352.86 743.39 354.01 712.36 355.15 718.03 356.29 728.03 357.44 753.01 358.58 711.81 359.72 710.8 360.87 741.6 362.01 716.07 363.15 757.47 364.29 748.61 365.44 718.12 366.58 727.8 367.72 727.74 368.86 713.57 370 722.43 371.15 732.02 372.29 757.51 373.43 723.24 374.57 714.71 375.72 711.41 376.86 712.92 378 744.65 379.14 739.75 380.29 724.12 381.43 738.79 382.57 719.84 383.71 719.35 384.85 751.16 386 754.25 387.14 739.04 388.28 725.31 389.42 736.24 390.57 717.72 391.71 723.85 392.85 723.7 394 733.59 395.14 713.23 396.28 724.65 397.42 717.13 398.57 712.08 399.71 718.56 400.86 755.58 402 716.64 403.14 715.51 404.29 724.68 405.43 732.22 406.57 734.82 407.72 731.24 408.86 723.89 410.01 709.56 411.15 721.95 412.3 722 413.44 745.91 414.59 711.17 415.74 734.61 416.88 712.24 418.03 753.63 419.18 739.14 420.32 719.65 421.47 746.6 422.61 724.55 423.76 745.85 424.9 742 426.05 709.91 427.19 729.73 428.34 716.1 429.48 745.01 430.63 757.63 431.77 748.15 432.91 738.63 434.06 721.04 435.2 728.64 436.35 714.48 437.49 725.46 438.63 724 439.78 710.64 440.92 734.15 442.06 736.31 443.21 719.22 444.35 737.98 445.5 738.43 446.64 733.37 447.78 731.68 448.93 714.02 450.07 738.77 451.21 723.61 452.36 748.97 453.5 743.22 454.64 756.94 455.79 751.18 456.93 741.85 458.07 710.59 459.22 757.24 460.36 716.73 461.51 748.83 462.65 715.13 463.8 735.32 464.94 711.54 466.08 750.65 467.23 753.53 468.38 750.86 469.52 716.06 470.67 722.18 471.81 721.91 472.96 715.69 474.1 742.78 475.25 734.53 476.4 749.19 477.54 753.62 478.69 714.1 479.84 710.72 480.98 724.12 482.13 718.4 483.27 714.19 484.42 737.07 485.56 745.29 486.71 715.39 487.85 709.34 489 749.4 490.14 718.84 491.29 723.03 492.43 718.72 493.58 741.2 494.72 735.05 495.87 718.83 497.01 726.43 498.16 754.07 499.3 742.92 500.44 729.1 501.59 728.46 502.73 719.24 503.88 712.49 505.02 736.84 506.17 744.38 507.31 733.82 508.46 735.36 509.6 749.37 510.75 746.57 511.89 713.44 513.04 733.91 514.18 714.71 515.33 728.86 516.48 739.83 517.62 748.82 518.77 735.75 519.91 720.1 521.06 751.2 522.21 740.41 523.36 731.83 524.5 719.77 525.65 746.86 526.79 726.23 527.94 731.89 529.09 753.1 530.23 741.89 531.38 729.63 532.52 753.06 533.67 728.75 534.81 712.43 535.96 724.57 537.1 713.33 538.25 737.68 539.39 747.34 540.54 737.54 541.68 753.73 542.83 740.97 543.97 715.63 545.12 752.73 546.26 752.27 547.41 726.42 548.56 743.87 549.7 728.38 550.85 728.22 552 722.88 553.14 734.43 554.29 713.5 555.44 723.04 556.58 722.67 557.73 709.04 558.87 735.75 560.02 729.28 561.16 734.33 562.31 747.73 563.45 743.77 564.6 724.15 565.74 722.14 566.88 739 568.02 715.76 569.17 741.78 570.31 752.51 571.45 721.03 572.59 727.66 573.74 746.94 574.88 711.56 576.02 755.36 577.16 749.41 578.3 734.28 579.44 747.29 580.58 720.7 581.73 747.03 582.87 717.87 584.01 722.45 585.15 732.84 586.29 711.93 587.44 741.1 588.58 713.51 589.72 715.82 590.87 753.91 592.01 718.53 593.15 744.02 594.3 712.5 595.44 732.48 596.59 730.11 597.74 709.47 598.88 753.79 600.03 739.11 601.18 746.08 602.33 740.25 603.48 747.52 604.62 728.71 605.77 746.02 606.91 754.55 608.06 725.36 609.21 711.04 610.35 749.49 611.5 721.98 612.64 732.64 613.78 731.67 614.93 741.44 616.07 732.83 617.22 748.5 618.36 729.59 619.51 745.3 620.65 727.29 621.8 754.32 622.94 726.7 624.09 732.44 625.23 744.11 626.38 749.75 627.52 750.02 628.67 719.13 629.82 709.8 630.97 736.37 632.12 745.54 633.27 739.83 634.41 725.73 635.56 713.23 636.71 718.2 637.86 753.63 639 727.31 640.15 753.34 641.29 719.46 642.44 711.96 643.59 717.73 644.73 715.33 645.88 720.88 647.03 746.2 648.17 744.37 649.32 737.44 650.47 730.64 651.62 723.31 652.77 742.11 653.92 744.93 655.07 749.98 656.21 745.31 657.36 735.12 658.51 755.13 659.66 730.58 660.8 713.5 661.95 737.07 663.1 750.3 664.25 718.11 665.39 729.38 666.54 743.21 667.69 726.33 668.84 754.65 669.99 747.1 671.14 742.6 672.29 716.65 673.44 725.28 674.59 710.38 675.74 751.78 676.88 713.26 678.03 750.82 679.18 715.93 680.33 749.01 681.48 725.28 682.63 743.59 683.78 720.97 684.93 755.66 686.08 749.91 687.23 757.46 688.38 709.13 689.53 747.66 690.67 749.29 691.82 749.07 692.97 734.32 694.11 741.65 695.26 751.04 696.4 744.25 697.55 727.7 698.7 738.82 699.85 725 701 712.76 702.15 712.5 703.3 723.94 704.45 746.01 705.6 753.32 706.75 723.76 707.9 745.66 709.05 752.06 710.2 744.86 711.35 734.61 712.5 736.61 713.65 751.02 714.81 752.36 715.96 719.43 717.11 736.29 718.26 735.92 719.41 754.85 720.56 714.35 721.71 734.33 722.86 721.1 724.01 738.98 725.17 711.32 726.32 748.06 727.48 747.27 728.63 755.01 729.79 736.43 730.95 738.03 741.79 731.78 731.71"/><text class="cls-2" transform="translate(90.92 620.9)">NO PICTURE PROVIDED</text><text class="cls-3" transform="translate(318.72 217.95) rotate(90)">:(</text></g></g></svg>